<svg id="Layer_1" data-name="Layer 1" xmlns="http://www.w3.org/2000/svg" viewBox="0 0 670.53 701.98"><defs><style>.cls-1{fill:#00adb5;}</style></defs><title>logo</title><path class="cls-1" d="M937.15,183.49a305.36,305.36,0,0,1,17.41,101.06c0,169.24-137.13,306.38-306.37,306.38-144,0-264.38-99.38-297.26-233.21a340.83,340.83,0,0,0-3.19,44C347.74,586.86,497.81,737,683,737s335.28-150.12,335.28-335.29A333.57,333.57,0,0,0,937.15,183.49Z" transform="translate(-347.74 -35)"/><path class="cls-1" d="M689.06,35a203.07,203.07,0,0,1,69.05,152.59c0,112.56-91.22,203.77-203.74,203.77a203,203,0,0,1-117.64-37.53c36.91,73.37,112.69,123.85,200.46,123.85,124,0,224.45-100.5,224.45-224.48C861.64,147.12,788,58.42,689.06,35Z" transform="translate(-347.74 -35)"/><path class="cls-1" d="M523.81,108.6a89.08,89.08,0,0,1,41.17,119c-17.75,36.54-57.19,55-95.28,48.44,4.83,3.24,9.52,6.57,14.94,9.21a125.29,125.29,0,1,0-57.95-167.45c-.87,1.81-1.23,3.7-2,5.55A88.88,88.88,0,0,1,523.81,108.6Z" transform="translate(-347.74 -35)"/></svg>